<svg xmlns="http://www.w3.org/2000/svg" xmlns:xlink="http://www.w3.org/1999/xlink" width="40" zoomAndPan="magnify" viewBox="0 0 30 30.000001" height="40" preserveAspectRatio="xMidYMid meet" version="1.0"><defs><clipPath id="8d70798e23"><path d="M 0.484375 0 L 29.515625 0 L 29.515625 29.03125 L 0.484375 29.03125 Z M 0.484375 0 " clip-rule="nonzero"/></clipPath></defs><g clip-path="url(#8d70798e23)"><path fill="#ffffff" d="M 0.484375 0 L 29.515625 0 L 29.515625 29.03125 L 0.484375 29.03125 Z M 0.484375 0 " fill-opacity="1" fill-rule="nonzero"/><path fill="#f2e3da" d="M 0.484375 0 L 29.515625 0 L 29.515625 29.03125 L 0.484375 29.03125 Z M 0.484375 0 " fill-opacity="1" fill-rule="nonzero"/></g><path stroke-linecap="round" transform="matrix(1.209677, 0, 0, 1.209677, 0.48387, 0.00000193548)" fill="none" stroke-linejoin="round" d="M 13.001043 4.000936 C 13.001043 4.265728 12.949376 4.520832 12.849272 4.766249 C 12.745939 5.011665 12.600626 5.22802 12.413335 5.415311 C 12.226043 5.602603 12.009689 5.744686 11.764272 5.84802 C 11.518855 5.948124 11.263751 5.999791 10.99896 5.999791 C 10.734168 5.999791 10.479064 5.948124 10.233647 5.84802 C 9.98823 5.744686 9.771876 5.602603 9.584584 5.415311 C 9.397293 5.22802 9.255209 5.011665 9.151876 4.766249 C 9.051772 4.520832 9.000105 4.265728 9.000105 4.000936 C 9.000105 3.736145 9.051772 3.48104 9.151876 3.235624 C 9.255209 2.990207 9.397293 2.773853 9.584584 2.586561 C 9.771876 2.399269 9.98823 2.253957 10.233647 2.153853 C 10.479064 2.050519 10.734168 1.998853 10.99896 1.998853 C 11.263751 1.998853 11.518855 2.050519 11.764272 2.153853 C 12.009689 2.253957 12.226043 2.399269 12.413335 2.586561 C 12.600626 2.773853 12.745939 2.990207 12.849272 3.235624 C 12.949376 3.48104 13.001043 3.736145 13.001043 4.000936 Z M 13.001043 4.000936 " stroke="#e05a28" stroke-width="2" stroke-opacity="1" stroke-miterlimit="4"/><path stroke-linecap="round" transform="matrix(1.209677, 0, 0, 1.209677, 0.48387, 0.00000193548)" fill="none" stroke-linejoin="round" d="M 19.998648 7.998645 C 19.998648 8.266666 19.95021 8.52177 19.846877 8.763957 C 19.746773 9.009374 19.60146 9.225728 19.414168 9.41302 C 19.226877 9.600312 19.010523 9.745624 18.765106 9.848957 C 18.519689 9.949062 18.264585 10.000728 17.999793 10.000728 C 17.735002 10.000728 17.479897 9.949062 17.234481 9.848957 C 16.989064 9.745624 16.77271 9.600312 16.585418 9.41302 C 16.398127 9.225728 16.252814 9.009374 16.15271 8.763957 C 16.049377 8.52177 16.000939 8.266666 16.000939 7.998645 C 16.000939 7.733853 16.049377 7.478749 16.15271 7.233332 C 16.252814 6.991145 16.398127 6.774791 16.585418 6.58427 C 16.77271 6.396978 16.989064 6.254895 17.234481 6.151561 C 17.479897 6.051457 17.735002 5.999791 17.999793 5.999791 C 18.264585 5.999791 18.519689 6.051457 18.765106 6.151561 C 19.010523 6.254895 19.226877 6.396978 19.414168 6.58427 C 19.60146 6.774791 19.746773 6.991145 19.846877 7.233332 C 19.95021 7.478749 19.998648 7.733853 19.998648 7.998645 Z M 19.998648 7.998645 " stroke="#e05a28" stroke-width="2" stroke-opacity="1" stroke-miterlimit="4"/><path stroke-linecap="round" transform="matrix(1.209677, 0, 0, 1.209677, 0.48387, 0.00000193548)" fill="none" stroke-linejoin="round" d="M 22.000731 16.00052 C 22.000731 16.265312 21.949064 16.520416 21.84896 16.765833 C 21.745627 17.01125 21.600314 17.227604 21.413023 17.414895 C 21.225731 17.602187 21.009377 17.7475 20.76396 17.847604 C 20.521773 17.947708 20.266669 17.999375 19.998648 17.999375 C 19.733856 17.999375 19.478752 17.947708 19.233335 17.847604 C 18.991148 17.7475 18.774793 17.602187 18.584273 17.414895 C 18.396981 17.227604 18.254898 17.01125 18.151564 16.765833 C 18.05146 16.520416 17.999793 16.265312 17.999793 16.00052 C 17.999793 15.735729 18.05146 15.480625 18.151564 15.235208 C 18.254898 14.989791 18.396981 14.773437 18.584273 14.586145 C 18.774793 14.398854 18.991148 14.253541 19.233335 14.153437 C 19.478752 14.050104 19.733856 13.998437 19.998648 13.998437 C 20.266669 13.998437 20.521773 14.050104 20.76396 14.153437 C 21.009377 14.253541 21.225731 14.398854 21.413023 14.586145 C 21.600314 14.773437 21.745627 14.989791 21.84896 15.235208 C 21.949064 15.480625 22.000731 15.735729 22.000731 16.00052 Z M 22.000731 16.00052 " stroke="#e05a28" stroke-width="2" stroke-opacity="1" stroke-miterlimit="4"/><path stroke-linecap="round" transform="matrix(1.209677, 0, 0, 1.209677, 0.48387, 0.00000193548)" fill="none" stroke-linejoin="round" d="M 9.000105 10.000728 C 9.32948 10.000728 9.652397 10.03302 9.975314 10.097603 C 10.29823 10.158957 10.61146 10.255832 10.915001 10.38177 C 11.215314 10.507707 11.505939 10.659478 11.777189 10.843541 C 12.051668 11.024374 12.303543 11.231041 12.536043 11.463541 C 12.768543 11.696041 12.97521 11.947916 13.156043 12.222395 C 13.340106 12.493645 13.495106 12.78427 13.617814 13.087812 C 13.743751 13.391354 13.840626 13.701354 13.90521 14.02427 C 13.966564 14.347187 13.998856 14.670104 13.998856 14.999479 L 13.998856 18.499896 C 13.998856 18.919687 13.927814 19.323333 13.782501 19.714062 C 13.637189 20.108021 13.427293 20.463229 13.156043 20.779687 C 12.881564 21.096146 12.561876 21.357708 12.19698 21.561146 C 11.832085 21.761354 11.441355 21.896979 11.028022 21.958333 C 10.614689 22.022917 10.204584 22.01 9.79448 21.926042 C 9.384376 21.842083 9.003334 21.690312 8.648126 21.4675 C 8.292918 21.247917 7.986147 20.970208 7.731043 20.640833 C 7.475938 20.308229 7.285418 19.943333 7.15948 19.546146 C 6.73323 18.167291 5.832292 17.266354 4.459897 16.840104 C 4.05948 16.714166 3.697813 16.523645 3.365209 16.268541 C 3.035834 16.013437 2.758126 15.709895 2.538542 15.354687 C 2.31573 14.999479 2.163959 14.618437 2.080001 14.208333 C 1.992813 13.798229 1.983126 13.388124 2.04448 12.974791 C 2.109063 12.561458 2.241459 12.170728 2.444896 11.805833 C 2.645105 11.440937 2.906667 11.121249 3.223126 10.84677 C 3.539584 10.57552 3.894792 10.365624 4.285522 10.220312 C 4.676251 10.074999 5.083126 10.000728 5.499688 10.000728 Z M 9.000105 10.000728 " stroke="#e05a28" stroke-width="2" stroke-opacity="1" stroke-miterlimit="4"/></svg>